# xmcd
#
# Track frame offsets:
#	150
#	20332
#	41570
#	62293
#	81576
#	97781
#	117930
#	138020
#	157056
#	172673
#
# Disc length: 2546 seconds
#
# Revision: 1
# Processed by: cddbd v1.5.1PL0 Copyright (c) Steve Scherf et al.
# Submitted via: audiograbber 1.82.02
#
DISCID=6e09f00a
DTITLE=Reba McEntire - Starting Over
DYEAR=1995
DGENRE=Country
TTITLE0=Reba McEntire - Talking in Your Sleep
TTITLE1=Reba McEntire - Please Come to Boston
TTITLE2=Reba McEntire - On My Own
TTITLE3=Reba McEntire - I Won't Mention It Again
TTITLE4=Reba McEntire - You're No Good
TTITLE5=Reba Mcentire - Ring On Her Finger, Time On Her Hands
TTITLE6=Reba McEntire - Five Hundred Miles Away From Home
TTITLE7=Reba McEntire - Starting Over Again
TTITLE8=Reba McEntire - You Keep Me Hangin' On
TTITLE9=Reba McEntire - By the Time I Get to Phoenix
EXTD=
EXTT0=
EXTT1=
EXTT2=
EXTT3=
EXTT4=
EXTT5=
EXTT6=
EXTT7=
EXTT8=
EXTT9=
PLAYORDER=
